<svg width="75" height="75" viewBox="0 0 385 385" fill="none" xmlns="http://www.w3.org/2000/svg">
<path d="M192.5 385C298.815 385 385 298.815 385 192.5C385 86.1852 298.815 0 192.5 0C86.1852 0 0 86.1852 0 192.5C0 298.815 86.1852 385 192.5 385Z" fill="#002C4C"/>
<path d="M99.8 120.66C101.94 118.68 103.82 116.84 105.8 115.11C124.39 98.86 144.41 84.68 166.46 73.45C185.86 63.57 206.11 56.23 227.81 53.49C244.31 51.41 260.75 51.31 276.72 56.82C294.77 63.05 304.6 76.9 304.91 95.99C305.07 105.6 303.16 114.8 299.88 123.8C299.44 116.68 298.03 109.84 295 103.39C288.36 89.24 276.94 80.56 262.43 75.83C242.62 69.37 222.44 69.3 202.18 73.37C179.75 77.88 158.94 86.77 138.82 97.4C126.08 104.12 113.86 111.69 102.01 119.87C101.47 120.24 101.05 120.91 99.8 120.66Z" fill="white"/>
<path d="M62.66 189.7C62.66 113.99 124.04 52.6101 199.75 52.6101C205.46 52.6101 211.1 52.9701 216.63 53.6401C204.08 49.8601 190.78 47.8201 177.01 47.8201C101.3 47.8201 39.92 109.2 39.92 184.91C39.92 254.91 92.38 312.64 160.13 320.96C103.74 303.96 62.66 251.63 62.66 189.7Z" fill="#00B7F8"/>
<path d="M235.17 109.04C230.75 107.87 226.34 106.91 221.94 106.13C287.49 129.47 327.09 191.66 311.54 250.49C295.99 309.32 230.84 343.83 162.32 331.74C166.53 333.24 170.84 334.58 175.26 335.75C248.44 355.09 321.17 320.01 337.71 257.41C354.25 194.8 308.34 128.38 235.17 109.04Z" fill="#00B7F8"/>
<path d="M171.34 240.58L171.33 275.98C171.33 289.17 160.63 299.87 147.44 299.87C134.25 299.87 123.55 289.17 123.55 275.98V241.63C123.55 214.71 145.45 192.81 172.37 192.81H210.42C211.62 192.81 212.79 192.9 213.94 193.07C189.98 195.65 171.34 215.94 171.34 240.58Z" fill="white"/>
<path opacity="0.4" d="M188.16 197.79C175.17 207.19 166.75 222.34 166.37 239.38L166.36 239.4V240.59L166.35 275.98C166.35 284.34 160.9 291.45 153.37 293.93C158.83 290.61 162.48 284.61 162.48 277.76L162.49 242.37V241.18L162.5 241.16C162.84 225.93 167.99 212.21 178.36 202.75C179.59 201.63 178.79 199.57 177.13 199.57H168.51C162.74 199.57 157.22 200.69 152.17 202.73C158.22 199.57 165.1 197.78 172.38 197.78H188.16V197.79Z" fill="#33CCFF"/>
<path d="M213.17 193.06C189.22 195.65 170.58 215.94 170.58 240.58V240.59L170.57 275.98C170.57 289.17 159.87 299.87 146.68 299.87C146.27 299.87 145.87 299.86 145.46 299.84C158.27 299.25 168.47 288.68 168.47 275.73L168.48 239.97V239.96C168.48 216.87 184.69 197.56 206.35 192.79H209.66C210.85 192.8 212.02 192.89 213.17 193.06Z" fill="white"/>
<path d="M234.31 216.69C234.31 226.81 228.02 235.45 219.14 238.94C216.62 239.93 213.88 240.51 211.03 240.58H171.34C171.34 215.94 189.98 195.65 213.93 193.06C215.52 193.29 217.06 193.68 218.54 194.22C218.74 194.29 218.94 194.37 219.14 194.45C228.02 197.93 234.31 206.58 234.31 216.69Z" fill="#29ABE2"/>
<path opacity="0.3" d="M218.54 194.22C191.09 195.46 175.7 214.62 175.7 240.58H171.33C171.33 215.94 189.97 195.65 213.92 193.06C215.53 193.29 217.07 193.68 218.54 194.22Z" fill="#1F1E21"/>
<path d="M204.23 134.91C159.34 136.82 123.54 173.82 123.54 219.18V183.74C123.54 156.78 145.4 134.92 172.36 134.92H204.23V134.91Z" fill="#29ABE2"/>
<path d="M255.91 158.48C256.08 171.82 245.32 182.69 232.02 182.69H171.33C171.33 182.69 171.33 182.69 171.32 182.69C152.57 183.06 136.28 193.63 127.76 209.07C126.54 211.28 125.48 213.59 124.6 215.99C124.53 216.18 124.45 216.37 124.39 216.56C124.39 216.56 124.39 216.57 124.39 216.58C124.32 216.78 124.24 216.98 124.17 217.19C124.03 217.61 123.89 218.03 123.75 218.49L123.54 219.19C123.54 173.83 159.34 136.83 204.23 134.92H231.67C244.8 134.91 255.74 145.35 255.91 158.48Z" fill="white"/>
<path opacity="0.4" d="M208.18 134.91C167.17 136.66 132.01 167.35 126.8 210.92C125.58 213.13 125.49 213.59 124.61 215.99C124.54 216.18 124.47 216.37 124.4 216.56C124.4 216.56 124.4 216.57 124.4 216.58C124.33 216.78 124.26 216.98 124.18 217.19C124.04 217.61 123.9 218.03 123.76 218.49C123.69 218.72 123.62 218.95 123.55 219.19C123.55 173.83 159.35 136.83 204.24 134.92H208.18V134.91Z" fill="#33CCFF"/>
<path d="M204.23 134.91H207.89V134.83C206.66 134.83 205.45 134.85 204.23 134.91Z" fill="#017DC0"/>
<path opacity="0.4" d="M250.93 158.55C251 163.65 249.06 168.45 245.48 172.08C243.34 174.25 240.76 175.84 237.94 176.77C239.26 175.97 240.49 175 241.6 173.87C245.18 170.24 247.11 165.44 247.05 160.34C246.92 150.05 238.27 141.68 227.79 141.68H200.46C190.8 142.1 181.45 144.26 172.78 147.97C182.52 143.16 193.23 140.38 204.34 139.9H231.67C242.16 139.89 250.79 148.26 250.93 158.55Z" fill="#017DC0"/>
<g opacity="0.3">
<path opacity="0.3" d="M204.23 134.91C159.34 136.82 123.54 173.82 123.54 219.18V200.25C126.95 184.96 134.48 170.84 145.55 159.31C157.37 147 172.28 138.61 188.6 134.91H204.23Z" fill="#1F1E21"/>
</g>
</svg>
